/* XPM */
static char *_ad645ea7bd54cafc6af6b8a08ba91493y3ECr32hkLQJQGw[] = {
/* columns rows colors chars-per-pixel */
"64 64 129 2 ",
"   c None",
".  c #4D2712",
"X  c #4E2812",
"o  c #522B14",
"O  c #532F18",
"+  c #5A3117",
"@  c #56321A",
"#  c #5A351D",
"$  c #5E391E",
"%  c #603A1F",
"&  c #5B3720",
"*  c #5E3A21",
"=  c #623D23",
"-  c #644126",
";  c #664529",
":  c #69462A",
">  c #67482B",
",  c #6A4A2D",
"<  c #6C4E31",
"1  c #644F3C",
"2  c #704E31",
"3  c #6E5234",
"4  c #66523F",
"5  c #6C563E",
"6  c #715537",
"7  c #765837",
"8  c #735738",
"9  c #755A3A",
"0  c #795E3E",
"q  c #7A603F",
"w  c #675240",
"e  c #695642",
"r  c #6C5A46",
"t  c #6D5C48",
"y  c #715C45",
"u  c #7A5F40",
"i  c #715E48",
"p  c #7D6241",
"a  c #74624C",
"s  c #756551",
"d  c #786751",
"f  c #7B6A55",
"g  c #7F6E59",
"h  c #7F6F5A",
"j  c #7D6D5A",
"k  c #7F705B",
"l  c #7F7262",
"z  c #806544",
"x  c #806445",
"c  c #806545",
"v  c #816645",
"b  c #806546",
"n  c #826746",
"m  c #836847",
"M  c #826947",
"N  c #836947",
"B  c #826848",
"V  c #836848",
"C  c #83694A",
"Z  c #84694A",
"A  c #846A4A",
"S  c #866B4A",
"D  c #866B4B",
"F  c #876B4B",
"G  c #876C4B",
"H  c #846B4D",
"J  c #876E4D",
"K  c #856C4E",
"L  c #866C4E",
"P  c #866D4F",
"I  c #876E4F",
"U  c #876F4F",
"Y  c #846B4A",
"T  c #886C4C",
"R  c #886E4D",
"E  c #886E4E",
"W  c #886F4E",
"Q  c #896F4F",
"!  c #8A714E",
"~  c #8A704F",
"^  c #8A714F",
"/  c #8B714F",
"(  c #866E50",
")  c #876E50",
"_  c #886F51",
"`  c #8B7353",
"'  c #8D7453",
"]  c #8E7653",
"[  c #8A7254",
"{  c #8B7254",
"}  c #8B7455",
"|  c #8C7455",
" . c #8D7455",
".. c #8D7556",
"X. c #8E7556",
"o. c #8E7656",
"O. c #81705B",
"+. c #81715B",
"@. c #81715C",
"#. c #81715D",
"$. c #907756",
"%. c #907857",
"&. c #917858",
"*. c #917958",
"=. c #937B5C",
"-. c #937C5C",
";. c #947C5C",
":. c #967D5F",
">. c #947E5E",
",. c #957E5E",
"<. c #957E5F",
"1. c #857561",
"2. c #867661",
"3. c #847562",
"4. c #867966",
"5. c #897B67",
"6. c #8E7F6A",
"7. c #8C7F6C",
"8. c #977F61",
"9. c #8E806C",
"0. c #988162",
"q. c #998263",
"w. c #9A8364",
"e. c #9B8466",
"r. c #9B8566",
"t. c #9B8567",
"y. c #928371",
"u. c #938472",
"i. c #948675",
/* pixels */
"                                                                                                                                ",
"                                                                                                                                ",
"                                                                                                                                ",
"                                                                                                                                ",
"                                                                                                                                ",
"                                                                                                                                ",
"                                                                                                                                ",
"                                                      : 2 , 2 2 = 2 , 6 2 2                                                     ",
"                                              : , : = ! / / F F + T T T S S % : - =                                             ",
"                                          2 : $.*.*.% ! / / F F + T F T S S + 7 0 0 = -                                         ",
"                                      = % $.' $.$.*.% w.w.0.;.;.% ;.,.;.0.! % q 0 0 0 9 # $                                     ",
"                                    : v % Q w.w.r.r.% 0 7 9 9 v % 0 0 0 q q + ]  . .X.8 = 6 *                                   ",
"                                  , Q T % 8.7 Q z z % z x 9 9 x % 7 7 z z q = : ; x u X.= 3 < *                                 ",
"                                : Z Q :.= 7 7 Q z z % q u p 9 x : q q p q z : : Z p u u - ( 6 6 #                               ",
"                                : Z ;.9 = 7 Q v z z : q p p p p - q q p p q : N 0 u u p ; u L 6 $                               ",
"                              - 0 $.9 9 = 7 T z z z : q u p p x : q p p p p : p p p p u , 0 q L 3 #                             ",
"                              :  .9 9 0 - m z z z x : p p p p p : p z p z q , p u p u u , q q q H &                             ",
"                            - u  .9 9 9 : z z z z x : p p q 0 x : p p p q p , p p 0 p q 3 q q 0 ( < #                           ",
"                            - ( 9 9 9 0 , p x z z x : p q p u v : p p p z z , p u p q p < q q q 0 [ @                           ",
"                            - ( 9 9 9 9 , x p x z v , u p 0 p z : N p q z q : x p q q q 3 q 0 q 0 [ @                           ",
"                            # 7 9 9 9 9 , x x p = x 2 u u u p p : N z q z q , q = p p p < q q 0 0 0 o                           ",
"                            $ $ # # % = = = = = u.- , u u u p b : N p z q z , - y.* * * $ $ $ $ # # o                           ",
"                            O f g O.@.@.2.3.2.2.g 5.= u u u u p : N q z p q - y.d 2.2.k g g g k f f o                           ",
"                            + y y a a a f f f ( g g 7.- u u u p : N p q p = y.f f d s a i a a i r y o                           ",
"                            @ y y a p a d f f f g ( O 0 u 9 u p : N z z q q + d f d d a a a a a y r o                           ",
"                            @ O o o O o o O + o f o < 0 u u u p : N q z q z , + f O o o o X o o o o o                           ",
"                            + - = ; ; : * , , , O 6 2 0 u u u p : N z q z q , , X , > > , > > > : ; o                           ",
"                            o 8 0 9 8 8 * u u u : < < u 9 u y p : G q z q q > q > u u u 3 8 7 7 8 8 o                           ",
"                            O 7 8 8 8 7 - u u u 0 < 6 0 0 9 u p > G q z z q , q 0 q q p 3 8 8 8 8 8 o                           ",
"                            O 8 8 8 7 9 , p 0 0 q , < 0 0 0 0 p : G p p q q , z 0 q u 0 < 8 8 8 8 8 o                           ",
"                            O 8 8 8 8 8 , p 0 0 0 : < 0 9 u 9 p : G q p q q < q 0 q 0 0 3 8 8 6 8 8 o                           ",
"                            o 8 8 8 8 8 , u 9 0 0 0 < 9 u 9 u p ; G p p p q 3 q 0 9 0 0 < 8 8 8 3 8 o                           ",
"                            o 8 8 8 8 8 > p 9 9 9 9 < 9 0 9 9 q ; Y q q q q < q 9 q 0 0 < 3 8 6 3 5 o                           ",
"                            o 8 8 8 8 8 , q 9 9 9 9 < 9 9 9 # $ $ = $ q q q 3 q 0 9 0 9 < 8 6 8 8 3 O                           ",
"                            o 8 3 8 8 9 , p 9 9 9 9 < 9 9 $ 9.9.9.9.9.$ q q 3 q 0 0 0 0 < 3 3 3 6 3 X                           ",
"                            X 8 8 8 8 3 < 0 9 8 8 8 < 9 9 $ a a a a a # q q 3 q 8 0 8 0 > 3 3 3 3 3 O                           ",
"                            o 8 3 8 8 3 , p 5 8 8 7 , 9 9 $ a a o a a # 7 q 3 q 9 9 9 9 > 3 3 3 3 3 X                           ",
"                            X 8 8 8 8 8 < u 8 6 8 8 < 9 9 o r a o y r o 9 9 , q 9 9 9 9 ; 3 3 3 3 3 o                           ",
"                            o 8 6 6 8 6 < u 8 8 8 8 , 9 9 X 5 5 5 5 5 X 6 9 , p 0 9 9 9 ; 3 3 3 3 3 X                           ",
"                            . 8 6 6 8 3 , p 3 8 * 3 < 8 9 > X X o o X > 9 9 < q * 9 0 9 - 3 3 3 3 3 X                           ",
"                            X @ @ # # $ $ * * * 9.$ , 6 9 8 > > + > > 8 8 8 < * 9.* $ * $ # # @ # @ X                           ",
"                            X d d f f f 1.#.@.2.s 9.* 9 9 8 8 9 - 9 8 9 9 9 * 9.s k k f f f f j s d X                           ",
"                            X 5 r a y y a s s d s d 5.& 6 9 5 8 - 8 9 8 9 * 9.a s s a t y t t t 5 5 X                           ",
"                            X r 5 t t a a a a d f f X 8 3 9 6 8 - 8 8 8 8 6 X s s a a t y t i t 5 5 X                           ",
"                            X o X X X X o o X o s X ; 8 6 6 8 8 - 3 9 8 8 3 - X i X X X X X . X X o X                           ",
"                            X % - - ; - # > , , X > - 6 6 6 3 9 - 8 3 8 8 3 - > X ; ; ; - > - - = - .                           ",
"                            X < < < 3 3 # 8 3 5 > 3 - 6 6 6 3 6 & 8 3 3 3 8 - 9 > 9 q 9 * < < > < < .                           ",
"                            X 6 < 3 3 3 * 3 3 3 3 3 - 6 6 6 9 3 # 3 3 3 3 3 - 5 9 9 7 7 * 3 < < < < .                           ",
"                            X 3 3 3 3 3 * 3 5 3 3 3 - 3 w 5 3 3 O 3 3 5 3 3 & r 9 9 9 9 * < < < < , .                           ",
"                            . O @ # & & * * & & # # # @ O O O X X O O O @ # # & & @ & @ @ O O O . . .                           ",
"                            X a s s s s s s s f s f s s s j l l X l l j j f f f s s s s s s s s s d .                           ",
"                            . 1.4.4.4.4.4.4.4.4.l 9.9.y.i.l i.i.X i.i.9.7.9.9.l 4.4.4.4.4.4.3.2.3.3..                           ",
"                            X 4 4 4 4 w w w w t t t e t e t t s X s t t t t t t r r w w e 1 1 4 1 1 .                           ",
"                            X 4 4 w 4 4 w w e e r t t t e t t s X s t t t t e t r r e e e 1 1 1 1 1 .                           ",
"                            X 1 1 1 w e e e e e e t e e t t t s X s t t t t t t r w r w w e e 1 1 1 .                           ",
"                            X 1 1 1 e e e e e e t e t t t t t s X s t t t t t r r r r e e e e e 1 1 .                           ",
"                            . . X X X X X X X X X X X X X X X X X X X X X X X X . . . . . . . . . . .                           ",
"                                                                                                                                ",
"                                                                                                                                ",
"                                                                                                                                ",
"                                                                                                                                ",
"                                                                                                                                ",
"                                                                                                                                ",
"                                                                                                                                "
};
