/* XPM */
static char *a13fb29e8ea5477faafb5535f524e704dFL3nusVneCBtgXp[] = {
/* columns rows colors chars-per-pixel */
"64 64 4 1 ",
"  c #656C17",
". c #72751B",
"X c #787B21",
"o c #7F8226",
/* pixels */
"................................................................",
"................................................................",
"................................................................",
"................................................................",
"................................................................",
"......................................oXX.......................",
".......................................XXX......................",
"........................................  ......................",
"................................................................",
"................................................................",
"................................................................",
"................................................................",
"................................................................",
".........................o......................................",
"..................Xoo...o.......................................",
"...................oXX.oo.................................XX....",
"................... XX.XX................................oX.....",
".................... X X ...............................XX .....",
"..................... . ............................ooX.XX .....",
".....................................................oXX X .....",
"..................................................... XX  ......",
"......................................................  ........",
"................................................................",
"................................................................",
"................................................................",
"................................................................",
"................................................................",
"................................................................",
"................................................................",
"................................................................",
"................................................................",
"................................................................",
"................................................................",
"................................................................",
"................................................................",
"................................................................",
"................................................................",
"................................................................",
"....................................oo..........................",
".....................................oX....o....................",
".......o.............................XXX.Xo.....................",
"..ooX..XX.........................oXX XXXX .....................",
"...oXX. X..o.......................XXX  XX .....................",
"... XXX .XX ....................... XX..X ......................",
"..oX XX..XX ........................ X..........................",
".. XX X..  ...........................................oX........",
"... X  ..........................................oX..Xo ........",
"................................................. XX.XX.........",
".................................................. XXX .........",
".................................................. XX ..........",
"................................................... X...........",
"................................................................",
"................................................................",
"................................................................",
"................................................................",
"................................................................",
"................................................................",
"................................................................",
"................................................................",
"................................................................",
"................................................................",
"................................................................",
"................................................................",
"................................................................"
};
