/* XPM */
static char *_b58b06225974fdca8f67eaeef5a531dOpCgFcN2o9K38Gbj[] = {
/* columns rows colors chars-per-pixel */
"64 64 232 2 ",
"   c None",
".  c #53321D",
"X  c #573622",
"o  c #583521",
"O  c #593724",
"+  c #593A27",
"@  c #5A3A27",
"#  c #5A3B28",
"$  c #5B3C29",
"%  c #5C3D2A",
"&  c #5D3E2A",
"*  c #5E3F2A",
"=  c #5E3F2B",
"-  c #5F402C",
";  c #60402B",
":  c #60412C",
">  c #61412C",
",  c #60402D",
"<  c #60412D",
"1  c #61422D",
"2  c #61422E",
"3  c #62422E",
"4  c #62432E",
"5  c #654937",
"6  c #684B36",
"7  c #6A4C38",
"8  c #6A4D39",
"9  c #694C3A",
"0  c #6B4F3E",
"q  c #6E513E",
"w  c #6F513E",
"e  c #735542",
"r  c #8C7E67",
"t  c #8C7E68",
"y  c #8C7F69",
"u  c #8D7F69",
"i  c #8D7F6A",
"p  c #8D806A",
"a  c #8D816A",
"s  c #8D806B",
"d  c #8D816B",
"f  c #8E806A",
"g  c #8E816A",
"h  c #8E806B",
"j  c #8E816B",
"k  c #8E826B",
"l  c #8E816C",
"z  c #8F816C",
"x  c #8F816D",
"c  c #8E826C",
"v  c #8F826C",
"b  c #8F826D",
"n  c #8F836E",
"m  c #90826E",
"M  c #90836E",
"N  c #90836F",
"B  c #90846E",
"V  c #91846E",
"C  c #90846F",
"Z  c #91846F",
"A  c #908470",
"S  c #918470",
"D  c #908471",
"F  c #918471",
"G  c #918571",
"H  c #928570",
"J  c #928671",
"K  c #918572",
"L  c #928572",
"P  c #928672",
"I  c #938772",
"U  c #928673",
"Y  c #938673",
"T  c #938773",
"R  c #938774",
"E  c #948873",
"W  c #968872",
"Q  c #968973",
"!  c #978A73",
"~  c #948874",
"^  c #958974",
"/  c #948875",
"(  c #958975",
")  c #968975",
"_  c #978A74",
"`  c #968A75",
"'  c #978A75",
"]  c #958976",
"[  c #958977",
"{  c #958A76",
"}  c #958A77",
"|  c #978A76",
" . c #968A77",
".. c #978B77",
"X. c #998C77",
"o. c #968A78",
"O. c #968B78",
"+. c #978B78",
"@. c #968B79",
"#. c #978B79",
"$. c #978C79",
"%. c #978C7A",
"&. c #998C78",
"*. c #988D78",
"=. c #998D78",
"-. c #988C79",
";. c #998D79",
":. c #9A8E79",
">. c #988C7A",
",. c #988D7A",
"<. c #988D7B",
"1. c #998E7A",
"2. c #9A8E7A",
"3. c #9A8F7B",
"4. c #988D7C",
"5. c #998E7C",
"6. c #998E7D",
"7. c #998F7D",
"8. c #9A8F7C",
"9. c #9B8F7C",
"0. c #9A8F7D",
"q. c #998E7E",
"w. c #9A8F7E",
"e. c #9A8F7F",
"r. c #9A907E",
"t. c #9B907E",
"y. c #9B917E",
"u. c #9A907F",
"i. c #9B907F",
"p. c #9C907D",
"a. c #9C917D",
"s. c #9C917E",
"d. c #9E917F",
"f. c #9D927F",
"g. c #9B9080",
"h. c #9B9181",
"j. c #9C9180",
"k. c #9C9181",
"l. c #9D9380",
"z. c #9C9281",
"x. c #9D9281",
"c. c #9D9381",
"v. c #9C9282",
"b. c #9D9282",
"n. c #9D9382",
"m. c #9C9283",
"M. c #9D9283",
"N. c #9D9383",
"B. c #9E9382",
"V. c #9E9383",
"C. c #9E9482",
"Z. c #9F9482",
"A. c #9E9483",
"S. c #9D9384",
"D. c #9E9384",
"F. c #9E9484",
"G. c #9E9485",
"H. c #9E9585",
"J. c #9E9684",
"K. c #9E9685",
"L. c #9F9685",
"P. c #9F9586",
"I. c #9F9686",
"U. c #9F9687",
"Y. c #9F9787",
"T. c #A09482",
"R. c #A09483",
"E. c #A09686",
"W. c #A19687",
"Q. c #A19787",
"!. c #A29887",
"~. c #A29987",
"^. c #A19989",
"/. c #A29989",
"(. c #A3998B",
"). c #A39A8B",
"_. c #A49989",
"`. c #A49A8A",
"'. c #A49A8B",
"]. c #A39B8D",
"[. c #A49C8D",
"{. c #A69D8D",
"}. c #A49C8E",
"|. c #A59D8F",
" X c #A69E90",
".X c #A79E90",
"XX c #A79F91",
"oX c #A89E90",
"OX c #A89F90",
"+X c #A7A091",
"@X c #A8A090",
"#X c #A9A190",
"$X c #A8A091",
"%X c #A9A191",
"&X c #A9A192",
"*X c #A9A093",
"=X c #A9A193",
"-X c #AAA193",
";X c #AAA292",
":X c #AAA293",
">X c #A9A194",
",X c #AAA194",
"<X c #AAA294",
"1X c #AAA295",
"2X c #ABA395",
"3X c #ABA396",
"4X c #ABA495",
"5X c #ABA496",
"6X c #ABA596",
"7X c #ACA495",
"8X c #ACA496",
"9X c #ACA497",
"0X c #ACA597",
"qX c #ADA597",
"wX c #ADA598",
"eX c #AEA599",
"rX c #ADA698",
"tX c #ADA699",
"yX c #AEA699",
"uX c #AEA69A",
"iX c #AEA79A",
"pX c #AFA79A",
"aX c #AFA79B",
"sX c #B0A79B",
"dX c #B0A89B",
"fX c #B0A89C",
"gX c #B0A99C",
"hX c #B1A99C",
"jX c #B0A99D",
"kX c #B1A99D",
"lX c #B1A99E",
"zX c #B2AA9E",
/* pixels */
"                                                                                                                                ",
"                                                                                                                                ",
"                                                                                                                                ",
"                                                                                                                                ",
"                                                                                                                                ",
"                                                                                                                                ",
"                                                                                                                                ",
"                                                                                                                                ",
"                                                                                                                                ",
"                                                                                                                                ",
"                                                                                                                                ",
"                                                                                                                                ",
"                                                                                                                                ",
"                                          e e                                                                                   ",
"                                          e 1Xe q 7 9 8 9 7 7 7 9 8 8 9 8 9 8 8                                                 ",
"                                          e 1X1Xe dX0XsXdXwXwXsXwXwXdXwXdXwXdX0X8                                               ",
"                                          e 1X1Xe =X#X#X#X#X#X#X#X#X#X#X=X#XoX#XdX8                                             ",
"                                          q {.{.`.e =X=X=X=X=X=X=X=X#X=X=X=X=XOXdX8                                             ",
"                                          9 `.!.j.9X1X1X1X=X1X=X=X7X=X=X=X=X7XoXdX8                                             ",
"                                          5 W.R.9X1X9X1X9X9X9X1X=X9X9X0X7X7X7X7XdX8                                             ",
"                                          5 sX5X0X1XwX0X9X0X0XwX0X0X9X9X9X9X9X9XdX8                                             ",
"                                          e e 5X1X9X0XwXwXwXwXwX0X0X9X9X0X0X0X0XlX9                                             ",
"                                          e =Xe 5X0X0XwXwXwXwXwXsX0X0X0X0X0X0X0XlX8                                             ",
"                                          e =X1Xe wXwXwXwXwXwXwX9X9X9XsX0X0X0X0XdX8                                             ",
"                                          e =X=Xe wXwXwXwXwXwXwX0X0XwXwXdXdXwXwXdX8                                             ",
"                                          w oXoX`.e wXwXwXwXwXwX9XsXdXwXwXwXwXwXlX8                                             ",
"                                          9 (.~.R.wXwXwXwXwXwXwX9XsXwXwXwXpXpXwXlX8                                             ",
"                                          6 Z.j.wXwXwXwXwXwXwXwXsXwXwXdXpXpXpXpXlX9                                             ",
"                                          6 lXjXlXjXjXjXjXjXlXlXzXzXlXzXlXzXzXlXlX9                                             ",
"                                          < .XS.S.g.S.Z.j.S.S.S.Z.S.S.S.S.S.S.(.=X<                                             ",
"                                          4 .Xg.g.j.j.j.g.Z.m.j.Z.g.g.S.Z.S.S.K.=X<                                             ",
"                                          < {.g.g.g.g.y.g.g.g.g.g.g.Z.g.g.Z.S.S.{.4                                             ",
"                                          < ].7.g.4.7.7.7.g.7.y.g.g.7.j.g.j.j.j..X<                                             ",
"                                          < (.y.4.g.7.7.7.7.7.7.7.y.7.y.7.w.s.j.{.1                                             ",
"                                          < K.y.4.7.4.4.4.4.r.<.%.y.<.<.7.7.7.7.}.<                                             ",
"                                          < K.<.4.4.>.7.>.4.<.<.4.%.%.7.>.7.7.7.{.<                                             ",
"                                          < W.<.4.>.>.>.%.<.<.X.o.<...<.>.>.7.<.(.<                                             ",
"                                          < R.%.>.>.[ >.%...[ [ [ ....<.>.o.>.>.~.1                                             ",
"                                          < j.>.>...>.........[ [ ....[ o.o.>.o.W.1                                             ",
"                                          < s...[ [ >.[ [ ..[ [ [ [ [ [ o.[ [ >.W.<                                             ",
"                                          1 s.o.[ o.[ [ [ ..[ [ [ [ ! [ [ [ [ ..S.1                                             ",
"                                          1 y.[ [ [ X.[ [ [ [ [ [ [ [ [ ~ ! ..%.Z.-                                             ",
"                                          * 7.[ [ [ [ [ [ [ [ [ [ [ ! [ [ [ [ [ f.1                                             ",
"                                          1 <.[ [ ~ ~ ~ ! ~ T ~ ~ ~ ~ T [ [ T ~ s.<                                             ",
"                                          * <.[ R ~ R R R R R R ~ R R R ~ ~ [ ! s.1                                             ",
"                                          * <.! ! U R R R R R R R R R ~ R ~ U [ a.1                                             ",
"                                          * <.I U U T U R R T ~ R R U T R R R U :.1                                             ",
"                                          * r.Z U U U U U U U U U U U U R R U U <.1                                             ",
"                                          * <.Z Z Z U U U U A U U U U U U U U U <.<                                             ",
"                                          * ..U Z Z U l A Z A A A A A U S Z Z Z X.<                                             ",
"                                          $ [ n Z Z l Z Z n Z Z n U U l M S Z Z X.1                                             ",
"                                          $ X.l l n l l Z l l l l f l M Z l M M X.1                                             ",
"                                          + ..l f n l l l l l M l M l M M l l M ! =                                             ",
"                                          + [ f f f l l l M M l M l l f l l l f ! #                                             ",
"                                          + [ u f a l f l l f l f l l l l f f u [ #                                             ",
"                                          + ! u a a a a f f f f f f f u f u u r ! #                                             ",
"                                          . [ r u u u u u u u u f f u u u u u r ! X                                             ",
"                                            o @ @ @ @ @ @ @ @ @ + # + + @ @ @ + +                                               ",
"                                                                                                                                ",
"                                                                                                                                ",
"                                                                                                                                ",
"                                                                                                                                ",
"                                                                                                                                ",
"                                                                                                                                "
};
