/* XPM */
static char *_29f5990a76a44d2ca22e3785e285fd5Vw61XDu5rBTUk1l9[] = {
/* columns rows colors chars-per-pixel */
"64 64 102 2 ",
"   c #4F2A13",
".  c #512C14",
"X  c #512E18",
"o  c #56321C",
"O  c #563620",
"+  c #573925",
"@  c #593A25",
"#  c #5C3E2A",
"$  c #5C412E",
"%  c #5D4532",
"&  c #5F4937",
"*  c #624533",
"=  c #604A37",
"-  c #614E3C",
";  c #63503E",
":  c #5E5044",
">  c #5F574E",
",  c #5F584E",
"<  c #645343",
"1  c #61554A",
"2  c #63594E",
"3  c #685C4E",
"4  c #645C53",
"5  c #655F58",
"6  c #666057",
"7  c #6C6355",
"8  c #676059",
"9  c #6A635B",
"0  c #6F695C",
"q  c #716B5D",
"w  c #6E6860",
"e  c #726D64",
"r  c #796F63",
"t  c #746F68",
"y  c #757266",
"u  c #7E7466",
"i  c #767369",
"p  c #78766A",
"a  c #79766B",
"s  c #7A766B",
"d  c #79746C",
"f  c #79746D",
"g  c #7D7B6B",
"h  c #7B796C",
"j  c #7A786D",
"k  c #7B786D",
"l  c #7B796E",
"z  c #7C7A6D",
"x  c #7C796E",
"c  c #7D7A6F",
"v  c #7D7B6F",
"b  c #7E7C6D",
"n  c #7E7C6E",
"m  c #7F7D6F",
"M  c #7D7B71",
"N  c #7E7B70",
"B  c #7D7C70",
"V  c #7F7D71",
"C  c #7E7C72",
"Z  c #7E7D72",
"A  c #807D6F",
"S  c #817F6F",
"D  c #807C70",
"F  c #807E70",
"G  c #807C72",
"H  c #817E73",
"J  c #838172",
"K  c #828174",
"L  c #838174",
"P  c #828075",
"I  c #858276",
"U  c #838179",
"Y  c #868378",
"T  c #84837A",
"R  c #86837B",
"E  c #878579",
"W  c #87857E",
"Q  c #88867B",
"!  c #8A877E",
"~  c #8A887C",
"^  c #8A887D",
"/  c #8B887D",
"(  c #8B897E",
")  c #8C897E",
"_  c #8C8A7E",
"`  c #8D8B7F",
"'  c #8B8983",
"]  c #8C8983",
"[  c #8C8A83",
"{  c #8E8B83",
"}  c #8C8A84",
"|  c #8E8C84",
" . c #8F8D87",
".. c #918E85",
"X. c #93918A",
"o. c #93918B",
"O. c #94928B",
"+. c #95938B",
"@. c #95938C",
"#. c #97958D",
"$. c #98968E",
"%. c #9C9A92",
/* pixels */
"O.P P F D D { # t t t t y y t t t y t t t t t t t i t t t t y s f w f i t t i & t t t t t f t t t t t i t t t t # o.P P V Z B  .",
"O.P P V C A ! # t t t t t t y t t t t y t t t t t t i t y t t t t i 9 0 t t t * t t t i t t t t i t t t t t t t # o.P U B B B ' ",
"O.P P V c c Q # t t t t t t t t t t t t t t t t t t t t w y t y t s 9 9 4 3 4 * t t t i t t t t t t t t t t t t # o.T B V l V W ",
"@.P P c C A Q # t t t t t t t t t t t t t t t t t t t t t t t t t 5 9 0 3 1 2 * t t t e t t t e t t t t t t e t # o.T M V V M ~ ",
"@.P P F C C ! # # t e t t t t t a w y y y w y w t t e t t e y 9 7 # # # # # # 7 # e e e t t w i t t t t t t t t # O.P P M c c ( ",
"@.P F V c C ! # 2 # # # + # # # + $ # # $ $ $ $ # + + $ + $ @ + # 7 7 5 5 7 5 7 8 # # # # # $ # # # # + + # # # # o.P P c C c ! ",
"@.P P c c c ! # 2 4 5 5 5 5 4 5 8 8 4 0   , , , , 4 5 5 8 6 6 6 4 5 4 5 5 4 4 2 > , > e   4 8 4 4 5 5 5 5 5 5 5 # @.P P V c c ! ",
"@.P P V c c ! # # # # # # #               , , , , 4 5 4 6 6 4 6 3 5 5 5 2 2 4 4 2 > > e         # # # # # # # # # @.P P V c c ! ",
"# # $ X # # # 0 9 0 y y y y y y y y i i y     $ $ $ $ $ $ $ $ + O X O @ $ $ $ $ $       l l p j j j j j l a f l q # # # . # # # ",
"o. .( ' ' | o.# 0 9 y y y y i y i y y y i y i y w y y y y y y i t # l s l h d a y z l l p l l j j j j l l l l l # o. .' { ' ' o.",
"o.T T d d y o.# 9 q y y y t y i y i i i i w a i a y i i y y i i i # C s h l l l h l m a l h j l l a a l f l l l # o.F T y p s o.",
" .' m d d d o.# 9 9 y y i i y y y i i i i i i i i i y i i y i i y : s x l l l l l l l h l l l l l l h l l p f l # o.[ C f f f o.",
"' V V a s s o.# R U U U H U U R T T T T T T T T T T T T T ( Q ' ! < ' W ! T T T T T T T T T T T Z T T T T T T T # ' V V a h a o.",
"' m C a s s ' # 4 4 8 8 9 5 8 5 8 8 5 8 5 8 8 8 6 5 5 5 8 8 9 6 w % 0 w 0 0 w 9 0 9 0 8 5 5 8 5 8 8 8 4 8 5 4 5 # ' V c d p d ' ",
"' V V a l l ' # 4 4 5 8 8 5 8 8 8 8 8 8 8 8 8 8 8 8 8 8 6 8 6 6 e O 9 9 w w 9 w w 9 8 8 5 8 8 8 8 8 8 8 8 8 5 8 # ' m V h l l ' ",
"' c l a l s ' # 4 4 8 5 8 8 8 8 8 8 8 8 8 8 8 8 8 8 8 8 9 6 9 6 e o 0 w 9 w w 0 8 8 8 8 8 5 5 8 8 8 8 8 5 8 8 5 # ' m c y l l ' ",
"' V c d l l ' $     # # $ $ $ $ $ # $ $ $ $ $ $ $ O o o o     .     X X + + + $ $ $ $ $ $ $ $ $ # $ $ # $ $ $ $ $ E V V a l l ' ",
"' C c d l l ' # 7 7 y i t i i i i t i i y i c   i i i i i i i i a i i i y a y y i i l   P m c m c c l l g b y b $ ' c V d d l ' ",
"' C V l l h ' # 7 3 i i i i i i i i i i y a m $ i y y y i i i a i y i i y i y a i i V # F A A A m h m h b h g g $ [ c V l l l ' ",
"[ c V C c d ' # 7 7 y i i i i i i i i i i y l $ y y a a i i i i a i i i i i y a i i m $ P A A A m m c b c g g g # [ m m l m l ' ",
"' m V c l c ' # 7 7 y i i y a d y p a a i a l % a y a a y d y h i i i i d a y a i i m $ P A A A m b m h b g b b # ' V V l m l ' ",
"' V V l c l ' # r y I I E T T W T T P E ( Q Q : ! ! W T T T I Y E E T E T T T T ~ _ _ ; ( ( _ _ ( ( ( ( ~ ~ ( ( # ' C V c l l ' ",
"' V c l c c ' # 1 1 8 8 6 8 8 8 8 8 8 8 8 6 0 ; w 9 8 8 8 8 6 9 8 9 6 9 8 9 8 9 8 8 e & m 0 0 0 0 0 0 0 0 0 0 0 # { c V l c h ' ",
"' V m g h c [ # 1 > 8 8 8 8 8 8 8 8 8 9 8 2 , $ y 8 9 9 8 9 9 6 9 8 9 8 9 8 9 8 9 8 w # F 0 0 0 0 0 0 0 0 0 0 0 # ' m m b l b ' ",
" .V M M b g [ # < 1 6 8 4 9 8 8 8 8 8 4 3 2 2 . q 9 9 9 9 9 9 6 8 9 8 8 9 9 8 9 9 9 0   B 0 0 0 0 0 0 0 0 0 0 0 #  .C C C l C ' ",
"' V V f c b [ # . . $ # $ $ $ $ % $ $   . . . . . .   $ $ $ $ $ $ $ $ $ $ $ $ $ $   X   X   + + + + + + + + + + # ' C C f l c ' ",
"{ V V f s s [ # 3 3 w e 0 e 0 e 0 y q y y y y y y y a y u d m   z m z z z B z z p p a y y p y p a a i i a i y a # { C Z d h d ' ",
"' V C f s d [ # 3 7 w 0 e 0 y 0 q 0 e 0 q y y y y y y y y y A < F m m z z z z z p p a a p y p y y y a i i i y d #  .C C d d d [ ",
"{ M l h d d [ # 3 3 0 e 0 e e q y 0 q q e y y y u y y y y l J < F z z V m g z z l h a a i i y a a i i i y h y y # ' l h s s s ` ",
" .f h d h y [ # 3 3 q e e q q e e q e w q q w a y y y y y u A < F m z z z m z z l f a a a a i a y i i i d y y y # | d h y s d | ",
"' l l d y d [ # q 0 A C V c c C F B F B V B F B F V I P E E ( < ( ( ( ~ T ~ T T W E E W P T W E W T T T T T E F $ ' c b u d h [ ",
"# $ # o $ $ # : : : 4 4 4 4 4 4 4 4 4 4 4 4 4 4 3 6 4 4 4 4 9 < 6 8 6 6 8 8 8 6 9 8 8 8 8 8 8 8 8 9 8 8 9 8 8 9 < # $ $ o # $ @ ",
"%.%.o...O.%.%.# : : , 4 , 4 , 4 4 4 4 4 4 , 4 4 4 4 4 4 4 4 w : 6 6 4 9 4 6 6 8 8 9 8 9 9 8 8 8 9 8 8 8 9 7 6 4 # %.%.O...O.%.%.",
"%.Q Q Q Q ( %.# : : 4 4 4 4 4 4 , , 4 4 4 4 4 4 4 4 4 4 4 4 9   4 6 6 6 9 6 6 9 8 8 9 8 9 8 8   X     X . . . . $ %.( Q Q Q Q %.",
"%.( ~ Q Q Q $.# X   $ $ $ $ $ $ # + O X       X     X X X   X X   o   $ $ $ $ $ $ X           y w y q q q 7 7 3 $ %._ Q Q Q Q #.",
"%.Q Q Q Q W $.# 9 9 p i p i y a y p p p V X j f p j j p p i j j z p h a l l d d j p j j j B X j y q y w q 7 7 7 # %._ _ Q Q Q $.",
"%.~ ~ I E Q $.# 7 7 y y p y p a p y p p F % j j p f j f j f j a i j f j d a l a a a a a l F + a e 0 e 0 0 0 3 7 # %.~ ~ I ! Q $.",
"$.Q ~ Q Y Y $.# 7 7 a p y a y p p p y p K & j i p j p j j j a a f f j f d h y a j p a f j F + p y q w 0 0 0 7 6 # $.~ Q Q F Q $.",
"$.~ ~ J J Y ..@ 7 7 p y a a h y p f p p B & j a a a a a p p p z f f j j j i l f p p l p a B ; F F V V V V V V V # @.! ! H H F ..",
"@.~ ! F Y Y ` $ y y ( Q T E E Q P E ~ ' ' , T W T T W W W ~ T T W W T T T T ' T W T E ' ( ' < 2 2 2 2 2 2 < , : # $.! _ H F ! ..",
"@.( Q F P F ..# 2 1 7 9 6 9 9 9 9 8 9 9 i & w 8 9 9 9 9 9 0 w w 0 w w w w w w w w w 9 w 0 0 - , 2 2 2 2 1 , , < $ $.E ~ F H I ..",
"$.~ ( P P P ..# 1 1 9 9 6 9 9 6 9 9 9 8 i % i 8 9 6 0 9 9 0 w w w w w w w w 0 w 0 w w w 0 2 $ , 2 2 2 2 2 1 : : # $.~ ~ J H F ..",
"@.~ ~ D H H { # 1 1 7 7 9 6 9 9 9 9 9 9 e . w 8 9 9 9 0 0 0 w w w w w w 0 w w 0 w w w 9 2 2   2 2 2 , 2 2 , < : # $.( ( H H G ..",
"$.~ ~ F H G ..# 1 1 7 7 6 9 6 9 8 9 9 9 e . e 9 6 9 9 q w w w w w w w X   X o o + + + + $ o o o @ $ # o o .     # $.( Q H G G ..",
"$.! ! F H H ..$ . . . . @ o $ o $ o @ @ # # # # $ + + o + o o o X O X m p y i i l p i i i p p i a i i i y a y a $ $.Q ! H H H ..",
"$.Q Q A H H ..# q 7 J J J g g J J b J g m A m m g S J S S b S g m V . b a p i g a a p i i i i i y i i i d y a y # @.~ Q H H H ..",
"$.Q ! c D D ..# q q J g J g g g b g b J b J c b S g S g S g g S m J < J y g i i y p i p i i i i i a i i a y y i # $.! E D D D ..",
"$.Q ' D D D ..# q 7 g g J g J g g J b b b b b A g S g S g S S S l T < m p i i i p i p i p i p i i i i i y d i i # $.! ! D D F ..",
"$.~ ~ c D D [ # 0 q A A A A A A J b b J b J J b J J b J b J g J m ..< ( ` | E W Y W W W T T E E T T T T T T T T $ o.~ ~ m A A ..",
"O.~ ~ A A A ..# A A Q Q I I J J Y J Y J J J J ~ J E J ~ ` ` _ | ....< p 8 9 8 6 8 8 8 8 8 9 8 8 8 6 6 6 8 4 4 4 $ @.~ ~ c m A [ ",
"$.~ Q c d A [ # - 3 7 7 7 7 q q 0 q q 0 q q q y q q q y q y q q q h < y 9 8 6 6 8 9 8 9 9 8 8 8 6 6 6 6 4 4 6 4 $ @.( ~ s A A [ ",
"$.~ I c A A ..# < 3 7 7 q 7 7 q 0 q 0 q q q q q y q q q q q y y y y < a 9 8 7 9 9 8 9 9 8 8 8 8 8 6 6 6 6 4 4 6 $ $.Q Y F A l ..",
"$.I I F F F ..# 3 3 7 q 7 7 q q 6 q q 7 0 0 0 0 q q q q y q q q q s . .   . . .   X . .           X             # O.I E H D D [ ",
"O.E ! H D l [ # . . . o $ $ % * $ $ $ $ $ ; ; & = ; = % $ % $ @ . . g y g s y h l p i m < c a y i y i i y a y i # #.E E H A F [ ",
"# $ $ . # # # 3 3 3 q q q y r r y h $ y y y e y y y y d u a a p y g b y d u y h b h y V < h y i i i i y i i y i r # $ $ X # # # ",
"%.$.$...[ ....# 3 3 q q q q y y y y $ a e y e y y y y y y h y y g y g y b y h y y y b l 1 B i p i i i y y y i y # %.$.O...] ] ..",
"%.Q H D d A ..# 7 3 q q q y y y y p $ p y y y y y y i i y a a j u y y g a y g y p p p l ; z y y y y y y y y y a # %.Q ! A s A ..",
"O.! Q D A l _ # o o o o o o o o 0 o o o o o o o o o o o o o o o o o o o o o o o o o o o o o o o 4 o O O O o o o # $.Q E s A s ! ",
"$.Q Q F d g [ # i y a y i i y a + p i i y i i i p i i i i i i i h d y y i i d a i i i i p i p p # i i i y s d y # $.! Q A A s ..",
"O.Q F d A d ' # i d y d i a y y < i i p y i p i i i i i p i i i y a y a i a i y a i i i i i y i < y i i a y y y # $.Q T s s s / ",
"$.I Q s a y ( # p i i i a i i a < p i i i i i i i i p i i p i i i i i y a i p i a a i i y y d y < i d y f y d d # +.I Q A s s ! ",
"#.Q E s l y ( # i i i i i i i y < p i i p i i p i i i i y p i i p i i p y i i i y y i i y h y d > y i a y y y d # +.Q Q r t s ! ",
"#.H E s y p ~ $ T T T ~ T T E E < W T ~ T T T W E T T W E T T E T T W E T E E E E E W T W T W E < T ! I Q Q Q ! # $./ E s d D H ",
"#.A D D i i E $ 6 9 6 6 6 6 6 6 < 6 6 6 6 6 6 6 8 6 6 6 6 6 8 8 8 8 8 4 8 6 6 8 6 6 6 8 8 8 4 9 < 8 5 5 5 5 4 5 # $.H H r t d ! "
};
